<svg xmlns="http://www.w3.org/2000/svg" viewBox="0 0 64 64">
  <path fill="#d80027" d="M51.112 28.444l-4.738 4.738a4.5 4.5 0 01-6.364 0 4.5 4.5 0 010-6.364l7.566-7.566-.848-1.98-1.98-.848-7.566 7.566a4.5 4.5 0 11-6.364-6.364l4.738-4.738-.849-1.98-1.98-.848-5.091 5.091a8 8 0 000 11.313 3 3 0 010 4.243l-1.414 1.414 1.414 1.415 2.828 2.828 1.415 1.414 1.414-1.414a3 3 0 014.243 0 8 8 0 0011.313 0l5.091-5.091-.848-1.98z"/>
  <g fill="#bd0022">
    <path d="M29.624 19.808a4.466 4.466 0 011.194-2.182l4.738-4.738-.6-1.4-4.138 4.138a4.485 4.485 0 00-1.194 4.182zM38.816 29a4.466 4.466 0 011.194-2.182l7.566-7.566-.6-1.4-6.966 6.966A4.488 4.488 0 0038.816 29zM28.333 27.586a2.992 2.992 0 00-.7-3.122 7.958 7.958 0 01-2.273-4.656 7.977 7.977 0 002.273 6.656 2.963 2.963 0 01.7 1.122zM48.849 34.364a8 8 0 01-11.313 0 3 3 0 00-4.243 0l-1.414 1.414-1.415-1.414-2.828-2.828-.414-.415-1 1 1.414 1.415 2.828 2.828 1.415 1.414 1.414-1.414a3 3 0 014.243 0 8 8 0 0011.313 0l5.091-5.091-.6-1.4z"/>
  </g>
  <path fill="#ff5023" d="M47.576 19.252l1.273 2.97 5.657-12.728-12.728 5.657 2.97 1.273 1.98.848zM51.112 28.444l1.98.849.848 1.98 1.273 2.97 5.657-12.728-12.728 5.657zM35.556 12.888l1.272 2.97L42.485 3.13 29.757 8.787l2.97 1.273 1.98.848z"/>
  <path fill="#a2001d" d="M4.18 56.991a2 2 0 102.829 2.829l23.455-23.456-2.828-2.828z"/>
  <path fill="#870018" d="M7.009 57.82a2 2 0 01-2.829 0 1.967 1.967 0 01-.309-.414 2 2 0 003.138 2.414l23.455-23.456-1-1z"/>
</svg>

